<svg 
	width="86" height="40" viewBox="0 0 33 40" fill="none" xmlns="http://www.w3.org/2000/svg">
	<ellipse cx="29.5097" cy="28.2013" rx="3.49038" ry="3.55201" fill="#F9F9F9"/>
	<path d="M17.7789 0.108185C21.0789 0.108185 20.4231 2.90674 19.6828 4.30601C23.2367 1.46441 25.1827 3.33728 25.7115 4.62892C27.4885 9.0205 19.0481 14.2086 14.6058 16.2537C12.575 17.8036 15.2404 19.0522 16.8269 19.4828C19.0481 19.8057 26.9808 19.8057 28.8846 27.2326C30.4077 33.1742 27.4038 37.4581 25.7115 38.8574C21.6923 38.965 12.8923 39.1157 9.84614 38.8574C6.79999 38.599 7.9423 36.597 8.89422 35.6283C9.90961 33.5616 8.04812 29.3853 6.99045 27.5555C1.40589 27.5555 0.0097045 23.8959 0.00967991 22.0661C-0.244166 15.6079 4.55776 13.3475 6.99045 13.0246C9.2116 4.95183 13.6539 0.108185 17.7789 0.108185Z" fill="#29303E"/>
	<path d="M10.1539 13.3475L19.6731 4.30598C20.9423 2.23936 20.1678 0.785201 19.3558 0.431063C14.025 -1.89389 9.51927 5.59765 6.34619 13.0245C7.36158 13.0245 9.30773 13.2398 10.1539 13.3475Z" fill="#F9F9F9"/>
	<path d="M18.7213 26.9097C17.3463 26.5868 14.4694 27.1034 13.9617 31.7533V35.6283C13.3271 35.6283 11.9944 35.8866 11.7405 36.9199C11.4232 38.2115 12.6924 38.8573 13.3271 38.8573" stroke="#F9F9F9" stroke-width="2.11538" stroke-linecap="round"/>
	<path d="M2.53833 24.5721C2.85564 24.6984 3.55371 24.7616 3.80756 24.0035" stroke="#F9F9F9" stroke-width="2.11538" stroke-linecap="round"/>
	<path d="M1.70125 22.066H1.47213C1.12513 22.066 0.925684 22.4608 1.13155 22.7401L1.24611 22.8956C1.4152 23.125 1.75818 23.125 1.92727 22.8956L2.04182 22.7401C2.24769 22.4608 2.04825 22.066 1.70125 22.066Z" fill="#F9F9F9"/>
	<ellipse cx="3.80771" cy="21.4202" rx="0.634615" ry="0.645819" fill="#F9F9F9"/>
</svg>
